# xmcd CD database file
#
# Track frame offsets:
#	150
#	20400
#	45480
#	57725
#	77325
#	89477
#	105835
#	111155
#	126365
#	142930
#	160482
#
# Disc length: 2303 seconds
#
# Revision: 0
# Processed by: cddbd v1.5.1PL0 Copyright (c) Steve Scherf et al.
# Submitted via: CDex 1.51
#
DISCID=8908fd0b
DTITLE=小島麻由美 - さよならセシル
DYEAR=1998
DGENRE=Pop
TTITLE0=夏の光
TTITLE1=私の運命線
TTITLE2=ショートケーキのサンバ
TTITLE3=一緒に帰ろうよ
TTITLE4=嵐前の静けさ
TTITLE5=プレイガーリー
TTITLE6=結婚のテーマ
TTITLE7=結婚行進曲
TTITLE8=キューティー
TTITLE9=セシルカットブルース
TTITLE10=やられちゃった女の子
EXTD=YEAR: 1998
EXTT0=
EXTT1=
EXTT2=
EXTT3=
EXTT4=
EXTT5=
EXTT6=
EXTT7=
EXTT8=
EXTT9=
EXTT10=
PLAYORDER=
